<?xml version="1.0" encoding="utf-8"?>
<!-- Generator: Adobe Illustrator 17.1.0, SVG Export Plug-In . SVG Version: 6.00 Build 0)  -->
<!DOCTYPE svg PUBLIC "-//W3C//DTD SVG 1.1//EN" "http://www.w3.org/Graphics/SVG/1.1/DTD/svg11.dtd">
<svg version="1.1" id="Layer_1" xmlns="http://www.w3.org/2000/svg" xmlns:xlink="http://www.w3.org/1999/xlink" x="0px" y="0px"
	 width="147.924px" height="146.684px" viewBox="0 0 147.924 146.684" enable-background="new 0 0 147.924 146.684"
	 xml:space="preserve">
<polygon fill="#EE7B48" points="147.924,17.515 147.924,146.684 0,146.684 0,0.001 130.326,0.001 "/>
<polygon fill="#D65E3C" points="147.924,17.599 130.326,17.599 130.326,0 "/>
<g>
	<g>
		<path fill="#FFFFFF" d="M13.633,34.575h3.811c1.92,0,3.284,0.99,3.284,2.745c0,0.99-0.479,1.845-1.29,2.28v0.03
			c1.17,0.345,1.726,1.425,1.726,2.505c0,2.13-1.71,3.09-3.675,3.09h-3.855V34.575z M17.443,38.925c0.84,0,1.319-0.6,1.319-1.365
			c0-0.765-0.45-1.32-1.35-1.32h-1.845v2.685H17.443z M17.638,43.56c0.99,0,1.545-0.645,1.545-1.545c0-0.885-0.569-1.53-1.545-1.53
			h-2.069v3.075H17.638z"/>
		<path fill="#FFFFFF" d="M22.813,34.575h1.935V41.4c0,1.425,0.93,2.235,2.355,2.235c1.425,0,2.369-0.81,2.369-2.25v-6.81h1.936
			V41.4c0,2.385-1.726,4.005-4.29,4.005c-2.58,0-4.305-1.62-4.305-4.005V34.575z"/>
		<path fill="#FFFFFF" d="M33.897,42.495c0,0,1.155,1.125,2.655,1.125c0.81,0,1.545-0.42,1.545-1.29
			c0-1.905-5.025-1.575-5.025-4.845c0-1.77,1.53-3.09,3.57-3.09c2.1,0,3.18,1.14,3.18,1.14l-0.84,1.575c0,0-1.021-0.93-2.354-0.93
			c-0.9,0-1.605,0.525-1.605,1.275c0,1.89,5.01,1.425,5.01,4.83c0,1.695-1.29,3.12-3.51,3.12c-2.37,0-3.675-1.455-3.675-1.455
			L33.897,42.495z"/>
		<path fill="#FFFFFF" d="M41.667,34.575h1.936v10.649h-1.936V34.575z"/>
		<path fill="#FFFFFF" d="M46.002,34.575h1.936l4.034,6.149c0.405,0.615,0.886,1.65,0.886,1.65h0.029c0,0-0.104-1.02-0.104-1.65
			v-6.149h1.92v10.649h-1.92l-4.035-6.135c-0.405-0.615-0.885-1.65-0.885-1.65h-0.03c0,0,0.105,1.02,0.105,1.65v6.135h-1.936V34.575
			z"/>
		<path fill="#FFFFFF" d="M57.102,34.575h6.375v1.665h-4.439v2.79h3.585v1.665h-3.585v2.865h4.68v1.665h-6.615V34.575z"/>
		<path fill="#FFFFFF" d="M65.667,42.495c0,0,1.155,1.125,2.655,1.125c0.81,0,1.545-0.42,1.545-1.29
			c0-1.905-5.025-1.575-5.025-4.845c0-1.77,1.53-3.09,3.57-3.09c2.1,0,3.18,1.14,3.18,1.14l-0.84,1.575c0,0-1.021-0.93-2.354-0.93
			c-0.9,0-1.605,0.525-1.605,1.275c0,1.89,5.01,1.425,5.01,4.83c0,1.695-1.29,3.12-3.51,3.12c-2.37,0-3.675-1.455-3.675-1.455
			L65.667,42.495z"/>
		<path fill="#FFFFFF" d="M73.677,42.495c0,0,1.155,1.125,2.655,1.125c0.81,0,1.545-0.42,1.545-1.29
			c0-1.905-5.025-1.575-5.025-4.845c0-1.77,1.53-3.09,3.57-3.09c2.1,0,3.18,1.14,3.18,1.14l-0.84,1.575c0,0-1.021-0.93-2.354-0.93
			c-0.9,0-1.605,0.525-1.605,1.275c0,1.89,5.01,1.425,5.01,4.83c0,1.695-1.29,3.12-3.51,3.12c-2.37,0-3.675-1.455-3.675-1.455
			L73.677,42.495z"/>
		<path fill="#FFFFFF" d="M85.332,34.575h2.07l2.085,5.265c0.24,0.63,0.54,1.56,0.54,1.56h0.029c0,0,0.285-0.93,0.525-1.56
			l2.085-5.265h2.07l0.854,10.649h-1.92l-0.45-5.955c-0.045-0.705-0.015-1.65-0.015-1.65h-0.03c0,0-0.314,1.035-0.569,1.65
			l-1.726,4.125h-1.694l-1.71-4.125c-0.255-0.615-0.585-1.665-0.585-1.665h-0.03c0,0,0.03,0.96-0.015,1.665l-0.45,5.955h-1.936
			L85.332,34.575z"/>
		<path fill="#FFFFFF" d="M102.431,34.395c3.135,0,5.505,2.385,5.505,5.43c0,3.135-2.37,5.58-5.505,5.58s-5.505-2.445-5.505-5.58
			C96.927,36.78,99.297,34.395,102.431,34.395z M102.431,43.635c1.949,0,3.51-1.62,3.51-3.81c0-2.1-1.561-3.66-3.51-3.66
			c-1.95,0-3.51,1.56-3.51,3.66C98.922,42.015,100.481,43.635,102.431,43.635z"/>
		<path fill="#FFFFFF" d="M109.601,34.575h3.63c3.285,0,5.43,1.95,5.43,5.31s-2.145,5.34-5.43,5.34h-3.63V34.575z M113.127,43.56
			c2.16,0,3.54-1.275,3.54-3.675c0-2.37-1.41-3.645-3.54-3.645h-1.59v7.32H113.127z"/>
		<path fill="#FFFFFF" d="M120.387,34.575h6.375v1.665h-4.439v2.79h3.585v1.665h-3.585v2.865h4.68v1.665h-6.615V34.575z"/>
		<path fill="#FFFFFF" d="M128.711,34.575h1.936v8.984h4.604v1.665h-6.54V34.575z"/>
		<path fill="#FFFFFF" d="M28.866,58.29h1.935v6.825c0,1.425,0.93,2.235,2.355,2.235c1.425,0,2.369-0.81,2.369-2.25v-6.81h1.936
			v6.825c0,2.385-1.726,4.005-4.29,4.005c-2.58,0-4.305-1.62-4.305-4.005V58.29z"/>
		<path fill="#FFFFFF" d="M39.95,66.209c0,0,1.155,1.125,2.655,1.125c0.81,0,1.545-0.42,1.545-1.29c0-1.905-5.025-1.575-5.025-4.845
			c0-1.77,1.53-3.09,3.57-3.09c2.1,0,3.18,1.14,3.18,1.14l-0.84,1.575c0,0-1.021-0.93-2.354-0.93c-0.9,0-1.605,0.525-1.605,1.275
			c0,1.89,5.01,1.425,5.01,4.83c0,1.695-1.29,3.12-3.51,3.12c-2.37,0-3.675-1.455-3.675-1.455L39.95,66.209z"/>
		<path fill="#FFFFFF" d="M47.72,58.29h6.375v1.665h-4.439v2.79h3.585v1.665h-3.585v2.865h4.68v1.665H47.72V58.29z"/>
		<path fill="#FFFFFF" d="M56.045,58.29h3.436c1.154,0,1.68,0.09,2.145,0.3c1.065,0.48,1.74,1.5,1.74,2.91
			c0,1.275-0.675,2.46-1.8,2.91v0.03c0,0,0.149,0.15,0.359,0.525l2.19,3.975h-2.16l-2.115-3.975H57.98v3.975h-1.936V58.29z
			 M59.72,63.284c1.035,0,1.681-0.615,1.681-1.68c0-1.02-0.436-1.65-1.95-1.65h-1.47v3.33H59.72z"/>
		<path fill="#FFFFFF" d="M73.73,58.109c2.609,0,3.96,1.35,3.96,1.35l-0.961,1.44c0,0-1.14-1.02-2.834-1.02
			c-2.386,0-3.66,1.65-3.66,3.66c0,2.31,1.575,3.81,3.569,3.81c1.605,0,2.67-1.11,2.67-1.11v-1.245H74.84v-1.665h3.375v5.61h-1.649
			v-0.51c0-0.225,0.015-0.45,0.015-0.45h-0.03c0,0-1.109,1.14-3.09,1.14c-2.805,0-5.22-2.175-5.22-5.52
			C68.24,60.509,70.565,58.109,73.73,58.109z"/>
		<path fill="#FFFFFF" d="M80.059,58.29h3.436c1.154,0,1.68,0.09,2.145,0.3c1.065,0.48,1.74,1.5,1.74,2.91
			c0,1.275-0.675,2.46-1.8,2.91v0.03c0,0,0.149,0.15,0.359,0.525l2.19,3.975h-2.16l-2.115-3.975h-1.859v3.975h-1.936V58.29z
			 M83.734,63.284c1.035,0,1.681-0.615,1.681-1.68c0-1.02-0.436-1.65-1.95-1.65h-1.47v3.33H83.734z"/>
		<path fill="#FFFFFF" d="M94.34,58.109c3.135,0,5.505,2.385,5.505,5.43c0,3.135-2.37,5.58-5.505,5.58s-5.505-2.445-5.505-5.58
			C88.835,60.494,91.205,58.109,94.34,58.109z M94.34,67.349c1.949,0,3.51-1.62,3.51-3.81c0-2.1-1.561-3.66-3.51-3.66
			c-1.95,0-3.51,1.56-3.51,3.66C90.83,65.729,92.389,67.349,94.34,67.349z"/>
		<path fill="#FFFFFF" d="M101.36,58.29h1.935v6.825c0,1.425,0.93,2.235,2.355,2.235c1.425,0,2.369-0.81,2.369-2.25v-6.81h1.936
			v6.825c0,2.385-1.726,4.005-4.29,4.005c-2.58,0-4.305-1.62-4.305-4.005V58.29z"/>
		<path fill="#FFFFFF" d="M112.204,58.29h4.11c1.995,0,3.39,1.395,3.39,3.465s-1.395,3.51-3.39,3.51h-2.175v3.675h-1.936V58.29z
			 M115.954,63.584c1.125,0,1.785-0.72,1.785-1.83c0-1.095-0.66-1.8-1.755-1.8h-1.845v3.63H115.954z"/>
	</g>
</g>
<g>
	<path fill="#FFFFFF" d="M110.101,115.535c-0.036-0.518-0.108-1.077-0.215-1.676c-0.108-0.6-0.244-1.156-0.407-1.669
		c-0.164-0.512-0.385-1.013-0.662-1.499c-0.276-0.487-0.595-0.902-0.954-1.246c-0.358-0.343-0.797-0.618-1.315-0.823
		c-0.518-0.205-1.09-0.307-1.715-0.307c-0.092,0-0.308,0.11-0.646,0.33c-0.339,0.221-0.721,0.467-1.146,0.738
		c-0.426,0.272-0.979,0.518-1.661,0.738c-0.682,0.221-1.367,0.331-2.053,0.331c-0.687,0-1.371-0.11-2.053-0.331
		c-0.682-0.22-1.236-0.466-1.661-0.738c-0.426-0.271-0.807-0.518-1.146-0.738c-0.339-0.22-0.553-0.33-0.646-0.33
		c-0.626,0-1.197,0.103-1.715,0.307c-0.151,0.06-0.47,0.138-0.607,0.21c0.129,0.495,0.248,1.006,0.345,1.548
		c0.158,0.887,0.265,1.716,0.318,2.481c0.053,0.767,0.08,1.551,0.08,2.356c0,1.819-0.415,3.256-1.191,4.405
		c-0.216,0.32-0.216,0.32-0.626,0.696c0.408,0.329,1.373,0.792,2.181,0.792h13.443c1.24,0,2.235-0.357,2.983-1.069
		c0.748-0.713,1.123-1.684,1.123-2.915C110.155,116.584,110.137,116.053,110.101,115.535z"/>
	<path fill="#FFFFFF" d="M99.327,107.985c1.631,0,3.023-0.577,4.176-1.73c1.153-1.153,1.73-2.545,1.73-4.176
		c0-1.63-0.577-3.022-1.73-4.176c-1.154-1.153-2.545-1.73-4.176-1.73c-1.63,0-3.022,0.577-4.176,1.73
		c-1.153,1.154-1.73,2.545-1.73,4.176c0,1.63,0.577,3.023,1.73,4.176C96.305,107.408,97.697,107.985,99.327,107.985z"/>
</g>
<g>
	<path fill="#FFFFFF" d="M37.28,115.535c0.036-0.518,0.108-1.077,0.215-1.676c0.108-0.6,0.244-1.156,0.407-1.669
		c0.164-0.512,0.385-1.013,0.662-1.499c0.276-0.487,0.595-0.902,0.954-1.246c0.358-0.343,0.797-0.618,1.315-0.823
		c0.518-0.205,1.09-0.307,1.715-0.307c0.092,0,0.308,0.11,0.646,0.33c0.339,0.221,0.721,0.467,1.146,0.738
		c0.426,0.272,0.979,0.518,1.661,0.738c0.682,0.221,1.367,0.331,2.053,0.331c0.687,0,1.371-0.11,2.053-0.331
		c0.682-0.22,1.236-0.466,1.661-0.738c0.426-0.271,0.807-0.518,1.146-0.738c0.339-0.22,0.553-0.33,0.646-0.33
		c0.626,0,1.197,0.103,1.715,0.307c0.151,0.06,0.47,0.138,0.607,0.21c-0.129,0.495-0.248,1.006-0.345,1.548
		c-0.158,0.887-0.265,1.716-0.318,2.481c-0.053,0.767-0.08,1.551-0.08,2.356c0,1.819,0.415,3.256,1.191,4.405
		c0.216,0.32,0.216,0.32,0.626,0.696c-0.408,0.329-1.373,0.792-2.181,0.792H41.332c-1.24,0-2.235-0.357-2.983-1.069
		c-0.748-0.713-1.123-1.684-1.123-2.915C37.226,116.584,37.244,116.053,37.28,115.535z"/>
	<path fill="#FFFFFF" d="M48.054,107.985c-1.631,0-3.023-0.577-4.176-1.73c-1.153-1.153-1.73-2.545-1.73-4.176
		c0-1.63,0.577-3.022,1.73-4.176c1.154-1.153,2.545-1.73,4.176-1.73c1.63,0,3.022,0.577,4.176,1.73
		c1.153,1.154,1.73,2.545,1.73,4.176c0,1.63-0.577,3.023-1.73,4.176C51.076,107.408,49.684,107.985,48.054,107.985z"/>
</g>
<path fill="#FFFFFF" d="M89.731,115.217c0,1.819-0.554,3.258-1.662,4.311c-1.108,1.054-2.579,1.582-4.415,1.582H63.764
	c-1.835,0-3.308-0.528-4.415-1.582c-1.108-1.054-1.662-2.493-1.662-4.311c0-0.805,0.026-1.589,0.08-2.356
	c0.053-0.765,0.16-1.594,0.318-2.481c0.16-0.887,0.36-1.711,0.603-2.469c0.243-0.758,0.569-1.497,0.979-2.218
	s0.88-1.335,1.412-1.845c0.53-0.507,1.179-0.913,1.946-1.218c0.765-0.303,1.611-0.455,2.537-0.455c0.137,0,0.455,0.164,0.956,0.491
	c0.5,0.326,1.066,0.69,1.695,1.091c0.63,0.404,1.449,0.767,2.458,1.094s2.022,0.488,3.038,0.488s2.029-0.162,3.038-0.488
	s1.828-0.69,2.458-1.094c0.629-0.401,1.195-0.765,1.695-1.091c0.501-0.326,0.82-0.491,0.956-0.491c0.925,0,1.771,0.153,2.537,0.455
	c0.766,0.305,1.415,0.711,1.946,1.218c0.532,0.509,1.002,1.124,1.412,1.845s0.736,1.46,0.979,2.218
	c0.242,0.758,0.444,1.582,0.603,2.469c0.158,0.887,0.265,1.716,0.318,2.481C89.704,113.628,89.731,114.412,89.731,115.217z"/>
<path fill="#FFFFFF" d="M79.888,87.775c1.707,1.706,2.561,3.767,2.561,6.18c0,2.41-0.853,4.471-2.561,6.177
	c-1.706,1.706-3.766,2.561-6.178,2.561c-2.413,0-4.472-0.854-6.178-2.561c-1.707-1.706-2.561-3.767-2.561-6.177
	c0-2.413,0.853-4.473,2.561-6.18c1.706-1.706,3.766-2.561,6.178-2.561C76.122,85.214,78.182,86.068,79.888,87.775z"/>
</svg>
